The film tells the story of two male brothers that develop a very close relationship when they are kids and such relationship becomes an incestuous love when they grow up.

Subtitles: Russian, English,Portuguese

Directed by: Aluisio Abranches
Starring: Joao Gabriel Vasconcellos  ...  Francisco (adult)
          Rafael Cardoso             ...  Thomas (adult)
          Lucas Cotrin               ...  Francisco (child) 
          Gabriel Kaufmann           ...  Thomas (child)
	  Julia Lemmertz             ...  Julieta (mother)
	  Fabio Assuncao             ...  Alexandre (father)
	  Louise Cardoso             ...  Rosa
	  Jean Pierre Noher          ...  Pedro

Screen: http://img825.imageshack.us/i/frombeginningtoenddvdri.jpg/

General
Complete name                    : From Beginning to End DVDRip-AVC.mkv
Format                           : Matroska
File size                        : 1.81 GiB
Duration                         : 1h 36mn
Overall bit rate                 : 2 690 Kbps
Encoded date                     : UTC 2010-08-23 17:22:05
Writing application              : mkvmerge v4.0.0 ('The Stars were mine') Jun  6 2010 16:18:42
Writing library                  : libebml v1.0.0 + libmatroska v1.0.0

Video
ID                               : 1
Format                           : AVC
Format/Info                      : Advanced Video Codec
Format profile                   : High@L3.1
Format settings, CABAC           : Yes
Format settings, ReFrames        : 8 frames
Muxing mode                      : Container profile=Unknown@3.1
Codec ID                         : V_MPEG4/ISO/AVC
Duration                         : 1h 36mn
Bit rate                         : 2 303 Kbps
Width                            : 720 pixels
Height                           : 368 pixels
Display aspect ratio             : 2.35:1
Original display aspect ratio    : 2.35:1
Frame rate                       : 23.976 fps
Color space                      : YUV
Chroma subsampling               : 4:2:0
Bit depth                        : 8 bits
Scan type                        : Progressive
Bits/(Pixel*Frame)               : 0.363
Stream size                      : 1.52 GiB (84%)
Writing library                  : x264 core 104 r1683 62997d6

Audio
ID                               : 2
Format                           : AC-3
Format/Info                      : Audio Coding 3
Mode extension                   : CM (complete main)
Codec ID                         : A_AC3
Duration                         : 1h 36mn
Bit rate mode                    : Constant
Bit rate                         : 384 Kbps
Channel(s)                       : 6 channels
Channel positions                : Front: L C R, Side: L R, LFE
Sampling rate                    : 48.0 KHz
Stream size                      : 265 MiB (14%)

Text #1
ID                               : 3
Format                           : UTF-8
Codec ID                         : S_TEXT/UTF8
Codec ID/Info                    : UTF-8 Plain Text
Language                         : Russian

Text #2
ID                               : 4
Format                           : UTF-8
Codec ID                         : S_TEXT/UTF8
Codec ID/Info                    : UTF-8 Plain Text
Language                         : English

Text #3
ID                               : 5
Format                           : UTF-8
Codec ID                         : S_TEXT/UTF8
Codec ID/Info                    : UTF-8 Plain Text
Language                         : Portuguese
